<?xml version="1.0" encoding="UTF-8"?>
<svg version="1.0" xmlns="http://www.w3.org/2000/svg" width="338" height="113" >
<path d="M35.708,76.198c5.71-12.596,12.509-24.792,19.929-36.449c5.936-9.325,12.531-18.35,20.423-26.124 c3.592-3.538,21.999-19.512,24.201-7.754c1.437,7.671-6.393,13.61-11.281,18.056c-7.991,7.267-18.895,16.8-30.267,17.18 c-5.584,0.186-8.278-4.262-2.486-6.9c4.748-2.163,11.68-1.203,15.831,1.882c6.136,4.56,7.333,13.643,6.594,20.671 c-2.113,20.089-21.804,31.434-40.489,31.942c-10.005,0.273-20.127-3.216-27.878-9.504C5.702,75.481-0.791,67.361,4.432,61.723 c5.086-5.489,15.838-6.06,22.707-6.599c9.563-0.75,19.262-0.227,28.748,1.103c17.415,2.44,34.782,10.331,52.523,9.654 c1.365-0.052,1.953-1.839,0.302-1.775c-10.129,0.387-19.927-2.637-29.662-5.031c-11.979-2.944-24.007-5.277-36.344-5.89 c-10.284-0.511-21.082-0.132-31.015,2.804C6.645,57.48-0.016,60.537,0,66.686c0.02,7.49,7.442,13.678,13.175,17.24 c8.654,5.379,19.658,7.5,29.723,6.229c19.138-2.418,36.83-14.956,38.378-35.34c1.123-14.777-9.333-27.002-24.844-22.534 c-3.846,1.108-9.143,5.838-4.23,9.221c6.149,4.232,15.94-0.632,21.391-3.685c8.829-4.944,16.654-12.001,23.745-19.155 c3.711-3.745,6.554-9.052,5.107-14.463c-1.521-5.687-8.281-4.471-12.35-2.841c-9.389,3.761-17.198,12.063-23.556,19.659 C52.954,37.25,42.139,56.542,33.414,75.79C32.834,77.067,35.258,77.188,35.708,76.198L35.708,76.198 M87.017,73.531c12.079,5.556,26.712-4.141,35.146-11.798c1.11-1.008-0.924-2.322-1.873-1.479 c-2.104,1.87-4.605,4.714-4.768,7.659c-0.183,3.32,1.886,5.684,5.207,5.615c6.289-0.129,13.214-6.278,17.768-10.129 c-0.718-0.341-1.436-0.682-2.154-1.022c-0.534,2.426,0.185,4.718,2.258,6.117c3.134,2.115,6.958,0.061,9.64-1.71 c3.536-2.336,7.024-5.871,9.07-9.613c0.834-1.526,0.361-3.598-1.779-3.198c-4.25,0.793-12.445,8.79-7.156,12.849 c3.924,3.01,9.011,3.011,13.682,2.202c2.692-0.466,8.079-1.834,8.722-5.08c0.259-1.31-2.177-1.871-2.436-0.566 c-0.897,4.54-12.08,4.276-15.033,3.658c-7.721-1.615-2.289-8.07,1.401-10.397c1.93-1.217-0.065,0.285-0.846,1.396 c-1.366,1.942-3.116,3.62-4.87,5.205c-1.845,1.668-3.966,3.207-6.365,3.942c-3.614,1.107-4.313-2.146-3.852-4.237 c0.247-1.12-1.418-1.645-2.154-1.022c-3.198,2.704-6.631,5.173-10.258,7.264c-2.247,1.294-7.669,4.542-8.426-0.285 c-0.403-2.57,2.472-5.61,4.224-7.167c-0.625-0.493-1.249-0.985-1.873-1.479c-7.48,6.792-21.226,16.578-32.187,11.536 C86.772,71.178,85.532,72.847,87.017,73.531L87.017,73.531 M138.343,34.155c-0.083,0.234,0.191-0.445,0.253-0.581c0.252-0.546,0.561-1.063,0.92-1.545 c0.366-0.491,0.844-0.926,1.454-1.059c0.795-0.173,1.611,1.488,1.9,1.975c0.306,0.517,0.862,0.936,1.481,0.965 c0.503,0.023,0.845-0.397,0.565-0.868c-1.213-2.047-3.529-4.934-6.23-3.546c-1.312,0.674-2.106,2.341-2.576,3.669 C135.804,34.032,137.963,35.231,138.343,34.155L138.343,34.155 M155.818,110.045c1.252-0.63,1.996-5.468,2.843-7.319c1.309-2.863,2.706-5.688,4.109-8.505 c4.346-8.728,8.953-17.327,13.722-25.83c11.527-20.549,24.122-40.72,40.669-57.639c2.081-2.127,4.977-5.538,8.065-6.268 c1.548-0.365,1.974,3.014,2.16,3.917c1.313,6.382,2.145,12.22,1.498,18.798c-1.164,11.85-5.729,23.31-13.096,32.65 c-4.367,5.536-9.984,10.258-15.737,14.293c-4.26,2.988-9.5,5.802-14.863,5.395c-6.016-0.456-7.979-7.367-8.643-12.274 c-0.882-6.532,0.468-14.554,5.549-19.152c6.333-5.73,14.442,0.035,19.806,4.081c5.62,4.237,10.942,9.061,17.805,11.156 c1.275,0.39,2.563-1.577,1.045-2.041c-10.366-3.165-17.032-12.753-26.967-16.783c-7.513-3.047-14.51,1.544-17.68,8.319 c-5.385,11.51-1.392,33.491,15.313,28.001c10.699-3.516,20.326-12.364,27.173-21.044c6.586-8.349,10.479-18.673,12.234-29.083 c1.167-6.916,0.918-13.512-0.525-20.321c-0.537-2.537-0.634-7.091-3.698-7.98c-2.553-0.741-5.452,1.873-7.179,3.316 c-5.9,4.936-11.011,11.071-15.849,17.015c-10.136,12.452-18.561,26.354-26.567,40.232c-6.617,11.468-12.863,23.172-18.643,35.084 c-0.871,1.796-7.761,16.914-1.728,13.88C158.031,111.24,157.233,109.334,155.818,110.045L155.818,110.045 M227.911,73.053c5.001-4.348,10.52-8.993,16.679-11.559c5.313-2.212,1.619,5.671,0.518,7.956 c-1.436,2.976-3.271,5.825-5.231,8.483c-0.247,0.335,1.704,1.811,2.035,1.453c3.417-3.7,6.94-7.314,10.604-10.772 c1.862-1.758,3.936-3.98,6.33-5.013c1.15-0.495-0.212,1.09-1.032-1.148c0.167,0.456-0.191,1.184-0.341,1.605 c-0.775,2.184-2.092,4.225-3.262,6.208c-0.229,0.388,1.691,1.783,2.035,1.453c2.523-2.43,5.166-4.798,8.072-6.762 c0.516-0.347,1.063-0.636,1.643-0.866c0.858-0.098,0.624-0.37-0.704-0.815c0.09,0.406,0.141,0.825,0.209,1.236 c0.144,0.866,0.375,1.684,0.794,2.457c4.013,7.395,14.38-4.352,16.986-6.917c-0.679-0.484-1.356-0.969-2.035-1.453 c-2.325,2.346-10.884,10.575-3.824,12.231c3.116,0.731,8.105-3.578,10.293-5.158c4.806-3.471,9.999-7.826,12.566-13.286 c0.201-0.43-1.735-1.794-2.035-1.453c-2.927,3.329-8.285,8.788-8.336,13.49c-0.019,1.673,1.2,3.174,2.697,3.896 c2.919,1.406,4.645-0.63,6.955-2.49c9.751-7.852,18.824-16.863,27.696-25.674c3.466-3.441,7.536-7.016,10.057-11.256 c1.397-2.35-2.504-3.417-4.163-3.112c-8.069,1.483-13.236,10.885-14.934,17.986c-1.323,5.538-3.673,10.86-6.265,15.909 c-1.037,2.02-3.805,8.584-6.543,8.906c0.533,0.307,1.066,0.613,1.599,0.92c0.266,0.251,3.999-3.377,4.768-3.942 c0.944-0.695,3.672-1.259,2.853-2.41c0.354,0.497,0.636,0.888,1.135,1.246c4.064,2.925,11.246,0.446,13.183-4.017 c0.228-0.525-1.916-1.728-2.035-1.453c-0.97,2.235-8.549,7.757-10.596,4.883c-0.899-1.264-2.371-1.708-3.797-1.269 c-2.08,0.64-10.266,5.609-5.579,7.496c4.267,1.718,11.623-19.266,12.445-21.775c1.773-5.416,2.694-10.122,6.45-14.624 c2.429-2.911,6.357-6.194,10.298-6.47c-1.006,0.071-0.143-0.923-1.028,0.568c-0.488,0.821-1.121,1.563-1.726,2.299 c-2.118,2.581-4.49,4.963-6.834,7.336c-5.836,5.91-11.92,11.581-18.037,17.198c-3.679,3.378-7.308,6.962-11.263,10.022 c-1.87,1.447-6.334,4.646-4.982-0.2c0.492-1.762,1.604-3.4,2.577-4.922c1.599-2.5,3.481-4.863,5.44-7.091 c-0.679-0.484-1.356-0.969-2.035-1.453c-3.406,7.246-11.289,13.048-18.104,16.871c-1.248,0.699-2.575,1.295-3.995,1.511 c0.737-0.112,1.85-2.99,2.324-3.677c1.389-2.009,3.092-3.854,4.81-5.586c0.235-0.237-1.646-1.836-2.035-1.453 c-3.218,3.169-7.973,8.861-12.907,9.23c-0.789,0.059-0.739-3.376-1.381-4.117c-3.51-4.057-10.313,4.244-12.712,6.554 c0.679,0.484,1.356,0.969,2.035,1.453c0.851-1.443,4.928-6.705,3.276-8.572c-1.607-1.818-3.008-1.003-4.679,0.232 c-5.534,4.09-10.312,9.514-14.967,14.554c0.679,0.484,1.356,0.969,2.035,1.453c3.026-4.106,12.25-16.382,4.448-19.828 c-3.106-1.372-8.301,2.806-10.584,4.349c-3.454,2.335-6.753,4.957-9.899,7.692C225.664,71.785,227.469,73.438,227.911,73.053 L227.911,73.053 M293.003,53.591c0.175-3.188,6.01-4.028,8.358-4.704c2.425-0.698,5.381-1.864,4.61-4.897 c-0.211-0.831-1.889-2.235-1.488-0.66c0.726,2.858-6.066,3.808-7.833,4.308c-2.207,0.625-5.057,2.155-5.198,4.758 C291.41,53.155,292.927,54.988,293.003,53.591L293.003,53.591 M280.98,42.542c0.184-0.083,0.179-0.074,0.354-0.112c0.17-0.037,0.343-0.044,0.516-0.04 c0.146,0.004,0.125,0.056,0.038-0.048c0.242,0.291,0.865,0.802,1.196,0.321c0.319-0.462-0.02-1.212-0.329-1.583 c-0.782-0.938-1.901-1.214-3.015-0.709C278.869,40.766,280.061,42.958,280.98,42.542L280.98,42.542z"/>
</svg>