<svg width="425" height="365" viewBox="0 0 425 365" fill="none" xmlns="http://www.w3.org/2000/svg">
<circle cx="2.5" cy="2.5" r="2.5" fill="#6A43F0"/>
<circle cx="72.5" cy="2.5" r="2.5" fill="#6A43F0"/>
<circle cx="142.5" cy="2.5" r="2.5" fill="#6A43F0"/>
<circle cx="212.5" cy="2.5" r="2.5" fill="#6A43F0"/>
<circle cx="282.5" cy="2.5" r="2.5" fill="#6A43F0"/>
<circle cx="352.5" cy="2.5" r="2.5" fill="#6A43F0"/>
<circle cx="422.5" cy="2.5" r="2.5" fill="#6A43F0"/>
<circle cx="2.5" cy="62.5" r="2.5" fill="#6A43F0"/>
<circle cx="72.5" cy="62.5" r="2.5" fill="#6A43F0"/>
<circle cx="142.5" cy="62.5" r="2.5" fill="#6A43F0"/>
<circle cx="212.5" cy="62.5" r="2.5" fill="#6A43F0"/>
<circle cx="282.5" cy="62.5" r="2.5" fill="#6A43F0"/>
<circle cx="352.5" cy="62.5" r="2.5" fill="#6A43F0"/>
<circle cx="422.5" cy="62.5" r="2.5" fill="#6A43F0"/>
<circle cx="2.5" cy="122.5" r="2.5" fill="#6A43F0"/>
<circle cx="72.5" cy="122.5" r="2.5" fill="#6A43F0"/>
<circle cx="142.5" cy="122.5" r="2.5" fill="#6A43F0"/>
<circle cx="212.5" cy="122.5" r="2.5" fill="#6A43F0"/>
<circle cx="282.5" cy="122.5" r="2.5" fill="#6A43F0"/>
<circle cx="352.5" cy="122.5" r="2.5" fill="#6A43F0"/>
<circle cx="422.5" cy="122.5" r="2.5" fill="#6A43F0"/>
<circle cx="2.5" cy="182.5" r="2.5" fill="#6A43F0"/>
<circle cx="72.5" cy="182.5" r="2.5" fill="#6A43F0"/>
<circle cx="142.5" cy="182.5" r="2.5" fill="#6A43F0"/>
<circle cx="212.5" cy="182.5" r="2.5" fill="#6A43F0"/>
<circle cx="282.5" cy="182.5" r="2.5" fill="#6A43F0"/>
<circle cx="352.5" cy="182.5" r="2.5" fill="#6A43F0"/>
<circle cx="422.5" cy="182.5" r="2.5" fill="#6A43F0"/>
<circle cx="2.5" cy="242.5" r="2.5" fill="#6A43F0"/>
<circle cx="72.5" cy="242.5" r="2.5" fill="#6A43F0"/>
<circle cx="142.5" cy="242.5" r="2.5" fill="#6A43F0"/>
<circle cx="212.5" cy="242.5" r="2.5" fill="#6A43F0"/>
<circle cx="282.5" cy="242.5" r="2.5" fill="#6A43F0"/>
<circle cx="352.5" cy="242.5" r="2.5" fill="#6A43F0"/>
<circle cx="422.5" cy="242.5" r="2.5" fill="#6A43F0"/>
<circle cx="2.5" cy="302.5" r="2.5" fill="#6A43F0"/>
<circle cx="72.5" cy="302.5" r="2.5" fill="#6A43F0"/>
<circle cx="142.5" cy="302.5" r="2.5" fill="#6A43F0"/>
<circle cx="212.5" cy="302.5" r="2.5" fill="#6A43F0"/>
<circle cx="282.5" cy="302.5" r="2.5" fill="#6A43F0"/>
<circle cx="352.5" cy="302.5" r="2.5" fill="#6A43F0"/>
<circle cx="422.5" cy="302.5" r="2.5" fill="#6A43F0"/>
<circle cx="2.5" cy="362.5" r="2.5" fill="#6A43F0"/>
<circle cx="72.5" cy="362.5" r="2.5" fill="#6A43F0"/>
<circle cx="142.5" cy="362.5" r="2.5" fill="#6A43F0"/>
<circle cx="212.5" cy="362.5" r="2.5" fill="#6A43F0"/>
<circle cx="282.5" cy="362.5" r="2.5" fill="#6A43F0"/>
<circle cx="352.5" cy="362.5" r="2.5" fill="#6A43F0"/>
<circle cx="422.5" cy="362.5" r="2.5" fill="#6A43F0"/>
</svg>
